Coordinates
version=1
nRows=12
nColumns=24
inDegrees=yes

Units are S.I. units (second, meters, Newtons, ...)
Angles are in degrees.

endheader
time	pelvis_tilt	pelvis_list	pelvis_rotation	pelvis_tx	pelvis_ty	pelvis_tz	hip_flexion_r	hip_adduction_r	hip_rotation_r	knee_angle_r	ankle_angle_r	subtalar_angle_r	mtp_angle_r	hip_flexion_l	hip_adduction_l	hip_rotation_l	knee_angle_l	ankle_angle_l	subtalar_angle_l	mtp_angle_l	lumbar_extension	lumbar_bending	lumbar_rotation
      3.42000000	     -1.53260648	     -4.46435233	      1.70221924	      0.35083712	      1.00886590	      0.00278666	      4.09701880	      3.48677614	      4.96471299	     -3.47444988	      1.21656503	      0.00000000	      0.00000000	     18.30212271	     -6.91529903	      2.85720580	    -64.59687793	      2.53102183	      0.00000000	      0.00000000	    -11.89555612	     17.22157893	      4.95234389
      3.43000000	     -1.61458121	     -4.21388944	      1.91106452	      0.35071692	      1.00945580	      0.00265795	      3.50921478	      3.21077117	      4.66579818	     -3.09183659	      1.19130150	      0.00000000	      0.00000000	     19.13151017	     -6.42243250	      3.32466197	    -63.83648751	      3.26164655	      0.00000000	      0.00000000	    -11.81834847	     17.00220846	      4.92726696
      3.44000000	     -1.66722179	     -4.16930097	      1.91453986	      0.35043735	      1.00998256	      0.00291407	      3.04332543	      3.19884100	      4.58100265	     -3.00230564	      1.34117505	      0.00000000	      0.00000000	     19.88993917	     -6.29043346	      3.55634278	    -62.88632413	      3.58686160	      0.00000000	      0.00000000	    -11.87018873	     16.95668417	      5.18554262
      3.45000000	     -1.79204885	     -3.83255333	      2.17967077	      0.35025503	      1.01029296	      0.00260042	      2.39989815	      2.80867099	      4.25053076	     -2.40040296	      1.35919352	      0.00000000	      0.00000000	     20.65649593	     -5.70238603	      4.02917456	    -61.73654712	      4.40883623	      0.00000000	      0.00000000	    -11.73320235	     16.63938375	      5.02812717
      3.46000000	     -1.90015675	     -3.72429311	      2.26437967	      0.34996774	      1.01051650	      0.00269649	      1.89365183	      2.70454897	      4.14325970	     -2.09542430	      1.53670661	      0.00000000	      0.00000000	     21.37064534	     -5.52498858	      4.24656557	    -60.42275381	      4.93511862	      0.00000000	      0.00000000	    -11.69491790	     16.51856736	      5.12053895
      3.47000000	     -1.98835202	     -3.75141066	      2.29074265	      0.34953405	      1.01066998	      0.00288948	      1.48716325	      2.76447323	      4.02137305	     -2.01114390	      1.68154398	      0.00000000	      0.00000000	     22.04640291	     -5.57047557	      4.37940552	    -58.95238421	      5.16438079	      0.00000000	      0.00000000	    -11.73178186	     16.52646868	      5.31560114
      3.48000000	     -2.10778977	     -3.76050103	      2.34986535	      0.34908567	      1.01065381	      0.00300549	      1.07254470	      2.79579390	      3.89688428	     -1.83695690	      1.86853925	      0.00000000	      0.00000000	     22.70950633	     -5.61922588	      4.48430044	    -57.31505618	      5.50335398	      0.00000000	      0.00000000	    -11.71980867	     16.51031700	      5.45255419
      3.49000000	     -2.25278343	     -3.49713590	      2.53135344	      0.34880150	      1.01050138	      0.00273888	      0.45855099	      2.49845470	      3.68477340	     -1.21985477	      1.99537551	      0.00000000	      0.00000000	     23.26097402	     -5.29878195	      4.67915322	    -55.44261804	      6.29979250	      0.00000000	      0.00000000	    -11.61788234	     16.21588815	      5.35378133
      3.50000000	     -2.36726216	     -3.59803732	      2.58627167	      0.34823484	      1.01029837	      0.00278173	      0.07381222	      2.63257629	      3.55753015	     -1.09342965	      2.18697371	      0.00000000	      0.00000000	     23.83946537	     -5.50887989	      4.72164037	    -53.50107719	      6.48717932	      0.00000000	      0.00000000	    -11.63724294	     16.28616761	      5.47417178
      3.51000000	     -2.50535567	     -3.68874504	      2.67012787	      0.34770603	      1.00994703	      0.00272113	     -0.31328981	      2.74488745	      3.45929159	     -0.91717550	      2.41151355	      0.00000000	      0.00000000	     24.37922222	     -5.71390124	      4.75290354	    -51.40810501	      6.71864930	      0.00000000	      0.00000000	    -11.61813448	     16.34156719	      5.55934602
      3.52000000	     -2.65523194	     -3.78009790	      2.75803956	      0.34714901	      1.00949734	      0.00256585	     -0.69582503	      2.85643289	      3.38563927	     -0.72295745	      2.64761506	      0.00000000	      0.00000000	     24.87939970	     -5.91281791	      4.78197271	    -49.16671370	      6.91233681	      0.00000000	      0.00000000	    -11.58669080	     16.39619651	      5.60671448
      3.53000000	     -2.81335943	     -3.88000484	      2.85237558	      0.34660846	      1.00895781	      0.00231681	     -1.07188859	      2.96900531	      3.33550969	     -0.53446589	      2.88652481	      0.00000000	      0.00000000	     25.32901556	     -6.12208550	      4.80967345	    -46.77131178	      7.01241239	      0.00000000	      0.00000000	    -11.53658876	     16.46193264	      5.62267035
